<?xml version="1.0" encoding="utf-8"?>
<!-- Generator: Adobe Illustrator 21.0.2, SVG Export Plug-In . SVG Version: 6.00 Build 0)  -->
<svg version="1.1" id="Layer_1" xmlns="http://www.w3.org/2000/svg" xmlns:xlink="http://www.w3.org/1999/xlink" x="0px" y="0px"
	 viewBox="0 0 100 100" style="enable-background:new 0 0 100 100;" xml:space="preserve">
<path d="M88.1,17.7L99,6.8L86.7,16C77.5,6.2,64.5,0,50,0C22.4,0,0,22.4,0,50c0,27.6,22.4,50,50,50c27.6,0,50-22.4,50-50
	C100,37.7,95.5,26.4,88.1,17.7z M50,91.2C27.3,91.2,8.8,72.7,8.8,50C8.8,27.3,27.3,8.8,50,8.8c11.6,0,22,4.8,29.5,12.6L49.6,43.8
	l-19.9-7.4l19.9,19.9L81.9,24c5.8,7.1,9.3,16.2,9.3,26C91.2,72.7,72.7,91.2,50,91.2z"/>
</svg>
